<svg
    xmlns="http://www.w3.org/2000/svg"
    width="17"
    height="17"
    viewBox="0 0 1000 1500"
    fill="#5865F2"
>
  <path d="M187 0 L813 0 C916.277 0 1000 83.723 1000 187 L1000 1313 C1000 1416.277 916.277 1500 813 1500 L187 1500 C83.723 1500 0 1416.277 0 1313 L0 187 C0 83.723 83.723 0 187 0 Z M125 1000 L875 1000 L875 250 L125 250 Z M500 1125 C430.964 1125 375 1180.964 375 1250 C375 1319.036 430.964 1375 500 1375 C569.036 1375 625 1319.036 625 1250 C625 1180.964 569.036 1125 500 1125 Z"/>
</svg>